<?xml version="1.0" encoding="UTF-8" standalone="no"?>
<!DOCTYPE svg PUBLIC "-//W3C//DTD SVG 1.1//EN" "http://www.w3.org/Graphics/SVG/1.1/DTD/svg11.dtd">
<svg width="100%" height="100%" viewBox="0 0 590 1202" version="1.1" xmlns="http://www.w3.org/2000/svg" xmlns:xlink="http://www.w3.org/1999/xlink" xml:space="preserve" xmlns:serif="http://www.serif.com/" style="fill-rule:evenodd;clip-rule:evenodd;stroke-linejoin:round;stroke-miterlimit:2;">
    <g transform="matrix(0.32,0,0,0.32,0,0)">
        <g transform="matrix(0.879694,0,0,0.873317,-911.715,-846.678)">
            <path d="M2081.52,5270.23C1718.06,5269.24 1425.32,5021.75 1233.54,4556.91C1048.01,4107.23 1036.4,3714.02 1036.4,3119.86C1036.4,2692.97 1244.67,1962.96 1374.38,1683.93C1565.14,1273.57 1735.01,969.496 2083.65,969.496L2084.67,969.497C2432.63,970.104 2602.35,1273.98 2792.92,1683.93C2922.63,1962.96 3130.9,2692.97 3130.9,3119.86C3130.9,3714.02 3119.29,4107.23 2933.76,4556.91C2741.6,5022.68 2448.07,5270.23 2083.65,5270.23L2081.52,5270.23Z"/>
        </g>
    </g>
</svg>
